<?xml version="1.0" encoding="UTF-8" standalone="no"?>
<!-- Uploaded to: SVG Repo, www.svgrepo.com, Transformed by: SVG Repo Mixer Tools -->

<svg
   fill="#4267b2"
   version="1.1"
   width="28.40913"
   height="50.000004"
   viewBox="0 0 18.181843 32.000002"
   xml:space="preserve"
   stroke="#4267b2"
   id="svg44"
   sodipodi:docname="hathor-logo.svg"
   inkscape:version="1.2.1 (9c6d41e410, 2022-07-14)"
   xmlns:inkscape="http://www.inkscape.org/namespaces/inkscape"
   xmlns:sodipodi="http://sodipodi.sourceforge.net/DTD/sodipodi-0.dtd"
   xmlns="http://www.w3.org/2000/svg"
   xmlns:svg="http://www.w3.org/2000/svg"><defs
   id="defs48" /><sodipodi:namedview
   id="namedview46"
   pagecolor="#505050"
   bordercolor="#ffffff"
   borderopacity="1"
   inkscape:showpageshadow="0"
   inkscape:pageopacity="0"
   inkscape:pagecheckerboard="1"
   inkscape:deskcolor="#505050"
   showgrid="false"
   inkscape:zoom="0.55625"
   inkscape:cx="181.57303"
   inkscape:cy="192.35955"
   inkscape:window-width="1366"
   inkscape:window-height="705"
   inkscape:window-x="-8"
   inkscape:window-y="-8"
   inkscape:window-maximized="1"
   inkscape:current-layer="svg44" />

<g
   id="SVGRepo_bgCarrier"
   stroke-width="0"
   transform="translate(-278.61613,-241.91571)" />

<g
   id="SVGRepo_tracerCarrier"
   stroke-linecap="round"
   stroke-linejoin="round"
   transform="translate(-278.61613,-241.91571)" />



<g
   id="g3871"
   transform="matrix(0.09996341,0,0,0.09996341,-19.051148,-9.822307)"><path
     style="fill:#ffffff;stroke:none;stroke-width:0.64"
     d="m 253.02093,329.42093 v 15.36 c -10.43328,0 -26.0992,-2.9184 -35.84,0.94656 -9.17376,3.64032 -12.59648,15.26592 -6.9728,23.34848 2.40832,3.46112 6.0896,5.39072 10.1728,6.12736 2.27776,0.41152 5.48544,-0.27904 7.08224,1.78112 5.48224,7.07392 6.77504,21.36 9.55776,29.87648 1.83808,5.62432 2.60352,10.78016 9.6,10.87744 18.12544,0.2528 36.27264,0.003 54.4,0.003 5.328,0 15.90016,2.0064 20.41087,-1.11488 3.1296,-2.16576 3.66336,-7.0272 4.76032,-10.40512 2.9536,-9.0944 4.57792,-19.47968 8.65472,-28.12224 1.51872,-3.2192 5.46112,-2.60672 8.41408,-3.52192 3.83744,-1.18912 6.91392,-3.80608 8.71808,-7.39648 3.9424,-7.84704 0.26624,-18.2112 -8.07808,-21.39904 -9.95072,-3.80096 -25.25503,-1.00032 -35.83999,-1.00032 0,-3.76576 -1.32544,-10.63936 0.65792,-13.936 1.53728,-2.55616 5.78944,-3.24608 8.30208,-4.50176 5.43679,-2.7168 10.71231,-6.08704 15.35999,-10.0032 9.42848,-7.94432 16.30784,-18.39488 20.832,-29.79904 16.13568,-40.67072 -5.00544,-83.50336 1.20128,-125.44 2.0992,-14.18208 5.81824,-27.55507 10.87872,-40.96 1.78752,-4.73549 8.04608,-12.89517 7.07072,-17.91754 -1.088,-5.60174 -6.52992,-3.97131 -9.90272,-1.88049 -7.39776,4.58606 -13.33824,11.10414 -18.68544,17.87803 -14.99136,18.99161 -20.35456,44.76864 -20.35456,68.48 -20.48831,-12.75904 -41.56415,-20.72384 -65.27999,-10.04032 -7.52,3.38752 -13.14112,8.65984 -19.84,13.24032 0,-26.08832 -4.47616,-53.4233 -21.51424,-74.24 -4.64,-5.6697 -10.04224,-11.33466 -16.24576,-15.30223 -2.97024,-1.89976 -6.64,-3.58283 -9.12448,0.0119 -3.01184,4.35783 2.9632,12.368 4.64448,16.57037 5.85664,14.64102 10.17856,29.76166 12.0608,45.44 1.28896,10.73984 2.06336,21.80992 1.3216,32.64 -1.06112,15.5008 -5.22496,30.60096 -6.2848,46.08 -1.85408,27.07136 5.14496,57.53984 26.8224,75.57056 6.37184,5.30048 14.7072,11.26848 23.04,12.74944 m 100.47999,-206.72 c -1.17376,7.94822 -4.39616,15.79341 -6.12864,23.68 -3.30048,15.02681 -4.75968,30.70464 -4.0864,46.08 1.53536,35.04832 15.4848,70.56128 -5.42592,103.04 -5.74464,8.92224 -13.99104,16.36992 -23.39903,21.25824 -4.1248,2.14336 -9.66528,2.81088 -13.40224,5.44768 -6.7392,4.75456 1.75936,17.48864 -3.71264,21.91616 -2.32128,1.87776 -8.81024,0.65792 -11.68512,0.65792 v -28.8 c 25.74272,-4.43264 38.35711,-30.27264 47.68959,-51.2 5.92704,-13.29216 10.2464,-24.10432 9.2128,-39.04 -0.66816,-9.66464 -5.96416,-16.68352 -8.49472,-25.6 -1.95264,-6.88064 -0.8384,-17.19104 -0.35008,-24.32 1.37216,-20.03815 8.08704,-36.24224 18.5024,-53.12 h 1.28 m -143.35999,0.64 c 17.49632,21.13273 20.9792,54.3232 17.73696,80.64 -1.05216,8.5408 -5.16672,16.17088 -5.552,24.96 -0.6176,14.1024 4.03264,29.67104 8.73792,42.88 4.81984,13.5296 13.54688,25.89376 25.15712,34.46016 3.79264,2.79808 7.90016,5.264 12.16,7.28 1.9264,0.912 5.11552,1.53984 6.38208,3.3792 1.35616,1.96928 0.65792,5.72992 0.65792,8.00064 v 19.84 h -12.16 c 0,-5.5616 2.04928,-16.29824 -1.18912,-21.03488 -3.03936,-4.4448 -13.33312,-6.10368 -18.01088,-9.07968 -11.12128,-7.07584 -19.5168,-17.31648 -24.68672,-29.40544 -15.7056,-36.72448 3.2192,-74.79936 -0.38208,-112.64 -1.06432,-11.18861 -2.58432,-22.35603 -5.3152,-33.28 -1.10912,-4.43488 -4.87616,-11.58605 -3.536,-16 m 66.56,58.42304 c 43.16287,-5.30048 71.63391,44.87872 46.98239,79.81696 -3.82976,5.42784 -8.69951,9.89696 -14.34239,13.39776 -5.53792,3.43616 -12.06912,6.04928 -18.56,6.89728 -8.16128,1.06624 -16.4736,0.66496 -24.32,-1.94816 -6.45504,-2.1504 -12.03456,-5.45536 -17.28,-9.78048 -33.76128,-27.83872 -14.18816,-83.2608 27.52,-88.38336 m 3.8752,14.37184 c -3.2896,1.35872 -3.8176,5.79392 -1.06304,8.01024 3.2,2.57408 9.90336,1.97568 13.82784,3.7024 11.0656,4.86848 13.60384,14.3328 16.12096,24.90688 0.66624,2.79808 3.376,4.64896 6.25088,3.71072 6.32063,-2.06336 2.50304,-14.23424 0.74752,-18.40512 -4.7392,-11.26208 -21.90656,-27.6992 -35.88416,-21.92512 m -33.3152,84.64512 c 21.23648,14.31488 42.51008,13.32032 65.28,3.84 -3.95136,8.86656 -14,15.21792 -22.4,19.35616 -2.92224,1.43936 -6.88192,3.58336 -10.24,3.32352 -6.45312,-0.50048 -13.54752,-5.63968 -18.56,-9.33952 -4.24768,-3.13536 -14.5856,-11.30496 -14.08,-17.18016 m -24.95936,73.82016 c 9.67744,-1.99488 21.47392,-0.22016 31.35936,-0.22016 h 64.64 c 6.33023,0 15.82079,-1.7664 21.75039,0.57216 3.424,1.34976 5.1264,5.91488 2.29184,8.75008 -2.1568,2.15872 -5.91104,1.55776 -8.68224,1.55776 h -20.47999 -65.28 c -7.71008,0 -20.34496,2.43712 -27.49184,-0.47488 -5.43424,-2.2144 -2.9376,-9.18912 1.89248,-10.18496 m 34.55936,52.89984 h -9.6 l -8.96,-32 11.15904,0.65792 2.55232,8.30208 4.84864,23.04 m 18.56,-32 v 32 l -7.94304,-0.65792 -2.37312,-7.66208 -4.40384,-23.68 h 14.72 m 24.96,0 -4.48,32 h -10.24 v -32 h 14.72 m 24.31999,0 -8.95999,32 h -9.6 l 3.35744,-23.04 2.13952,-8.30208 z"
     id="path3821" /></g></svg>
